<svg width="687" height="166" viewBox="0 0 687 166" fill="none" xmlns="http://www.w3.org/2000/svg">
<path d="M67.84 125.568L8.96 100.352V81.024L67.84 55.808V71.808L16.896 93.568V87.808L67.84 109.568V125.568ZM619.07 125.568V109.568L670.014 87.808V93.568L619.07 71.808V55.808L677.95 81.024V100.352L619.07 125.568Z" fill="#636B89"/>
<path d="M106.958 130.048C100.046 130.048 94.158 128.725 89.294 126.08C84.43 123.435 80.6327 119.68 77.902 114.816C75.2567 109.952 73.678 104.107 73.166 97.28L91.47 96.384C91.982 100.224 92.9633 103.467 94.414 106.112C95.8647 108.757 97.6993 110.72 99.918 112C102.137 113.28 104.782 113.92 107.854 113.92C110.585 113.92 112.889 113.536 114.766 112.768C116.729 112 118.222 110.891 119.246 109.44C120.27 107.904 120.782 106.069 120.782 103.936C120.782 101.632 120.227 99.584 119.118 97.792C118.009 96 116.046 94.3787 113.23 92.928C110.499 91.4773 106.617 90.112 101.582 88.832C95.5233 87.296 90.4887 85.4613 86.478 83.328C82.5527 81.1947 79.6513 78.464 77.774 75.136C75.8967 71.808 74.958 67.6267 74.958 62.592C74.958 57.0453 76.1527 52.224 78.542 48.128C81.0167 43.9467 84.558 40.7467 89.166 38.528C93.8593 36.224 99.534 35.072 106.19 35.072C112.675 35.072 118.222 36.2667 122.83 38.656C127.438 41.0453 131.022 44.5013 133.582 49.024C136.227 53.5467 137.763 59.0507 138.19 65.536L119.758 66.432C119.331 63.2747 118.521 60.544 117.326 58.24C116.131 55.936 114.51 54.1867 112.462 52.992C110.499 51.7973 108.153 51.2 105.422 51.2C101.753 51.2 98.8087 52.1387 96.59 54.016C94.4567 55.8933 93.39 58.4533 93.39 61.696C93.39 63.8293 93.902 65.664 94.926 67.2C96.0353 68.736 97.9127 70.1013 100.558 71.296C103.289 72.4907 107.001 73.728 111.694 75.008C118.606 76.6293 124.067 78.7627 128.078 81.408C132.089 84.0533 134.947 87.168 136.654 90.752C138.361 94.336 139.214 98.5173 139.214 103.296C139.214 108.757 137.934 113.493 135.374 117.504C132.814 121.429 129.102 124.501 124.238 126.72C119.459 128.939 113.699 130.048 106.958 130.048ZM183.324 128C175.644 128 169.969 126.251 166.3 122.752C162.716 119.253 160.924 113.835 160.924 106.496V43.264H178.332V104.832C178.332 107.989 179.057 110.336 180.508 111.872C182.044 113.408 184.391 114.176 187.548 114.176H203.676V128H183.324ZM141.212 73.216V59.392H203.676V73.216H141.212ZM228.97 128V59.392H241.77L243.178 77.312H242.026C242.709 71.3387 244.415 66.8587 247.146 63.872C249.962 60.8853 254.058 59.392 259.434 59.392H274.794V73.6H260.714C257.471 73.6 254.783 74.1547 252.65 75.264C250.517 76.3733 248.938 78.0373 247.914 80.256C246.89 82.4747 246.378 85.248 246.378 88.576V128H228.97ZM212.586 128V114.176H267.242V128H212.586ZM212.586 73.216V59.392H239.338V73.216H212.586ZM305.336 128V59.392H322.744V128H305.336ZM279.864 128V114.176H344.376V128H279.864ZM281.144 73.216V59.392H319.544V73.216H281.144ZM313.528 52.096C310.797 52.096 308.579 51.328 306.872 49.792C305.251 48.256 304.44 46.08 304.44 43.264C304.44 40.3627 305.251 38.144 306.872 36.608C308.579 35.072 310.797 34.304 313.528 34.304C316.259 34.304 318.435 35.072 320.056 36.608C321.763 38.144 322.616 40.3627 322.616 43.264C322.616 46.08 321.763 48.256 320.056 49.792C318.435 51.328 316.259 52.096 313.528 52.096ZM378.502 129.536C372.017 129.536 366.257 128.043 361.222 125.056C356.273 122.069 352.39 117.888 349.574 112.512C346.843 107.051 345.478 100.779 345.478 93.696C345.478 86.6133 346.843 80.384 349.574 75.008C352.39 69.632 356.273 65.4507 361.222 62.464C366.257 59.392 372.017 57.856 378.502 57.856C383.878 57.856 388.785 58.9227 393.222 61.056C397.659 63.1893 401.286 66.2187 404.102 70.144C407.003 74.0693 408.838 78.7627 409.606 84.224L392.326 85.12C391.473 81.28 389.851 78.336 387.462 76.288C385.073 74.24 382.129 73.216 378.63 73.216C373.937 73.216 370.225 75.0507 367.494 78.72C364.849 82.304 363.526 87.296 363.526 93.696C363.526 100.096 364.849 105.131 367.494 108.8C370.225 112.384 373.937 114.176 378.63 114.176C382.214 114.176 385.201 113.109 387.59 110.976C390.065 108.843 391.686 105.728 392.454 101.632L409.734 102.528C409.051 107.904 407.259 112.64 404.358 116.736C401.457 120.747 397.787 123.904 393.35 126.208C388.913 128.427 383.963 129.536 378.502 129.536ZM454.484 128C446.804 128 441.129 126.251 437.46 122.752C433.876 119.253 432.084 113.835 432.084 106.496V43.264H449.492V104.832C449.492 107.989 450.217 110.336 451.668 111.872C453.204 113.408 455.551 114.176 458.708 114.176H474.836V128H454.484ZM412.372 73.216V59.392H474.836V73.216H412.372Z" fill="#D0D6E3"/>
<path d="M484.002 128V111.616H503.842V53.504H484.002V37.12H541.858V53.504H522.018V111.616H541.858V128H484.002ZM573.168 129.536C567.707 129.536 562.928 128.128 558.832 125.312C554.736 122.496 551.536 118.443 549.232 113.152C547.013 107.776 545.904 101.291 545.904 93.696C545.904 86.1013 547.013 79.6587 549.232 74.368C551.536 68.992 554.736 64.896 558.832 62.08C562.928 59.264 567.707 57.856 573.168 57.856C577.947 57.856 582.085 58.9227 585.584 61.056C589.083 63.104 591.643 65.792 593.264 69.12V37.12H610.672V128H594.032L593.52 117.12C591.813 120.789 589.211 123.776 585.712 126.08C582.299 128.384 578.117 129.536 573.168 129.536ZM578.16 114.176C581.232 114.176 583.877 113.408 586.096 111.872C588.4 110.251 590.149 107.904 591.344 104.832C592.624 101.76 593.264 98.048 593.264 93.696C593.264 89.2587 592.624 85.504 591.344 82.432C590.149 79.36 588.4 77.056 586.096 75.52C583.877 73.984 581.232 73.216 578.16 73.216C573.467 73.216 569.925 74.9653 567.536 78.464C565.147 81.9627 563.952 87.04 563.952 93.696C563.952 100.267 565.147 105.344 567.536 108.928C569.925 112.427 573.467 114.176 578.16 114.176Z" fill="#2863E1"/>
<path d="M80 142.5C77.5147 142.5 75.5 144.515 75.5 147C75.5 149.485 77.5147 151.5 80 151.5L80 147L80 142.5ZM80.1 147L81.1492 142.624L80.6319 142.5L80.1 142.5L80.1 147ZM90.665 150.897L88.2846 154.715L90.665 150.897ZM119.105 149.67L122.361 146.564L119.105 149.67ZM190.205 151.602L186.921 148.525L190.205 151.602ZM225.755 149.915L226.238 154.389L225.755 149.915ZM275.525 143.713L274.146 139.429L275.525 143.713ZM282.635 147.23L279.057 149.959L282.635 147.23ZM303.965 149.872L304.773 154.299L303.965 149.872ZM332.405 149.701L331.647 145.266L332.405 149.701ZM353.735 143.931L350.784 147.329L353.735 143.931ZM410.615 144.62L410.022 149.081L410.615 144.62ZM453.275 153.182L452.932 157.668L453.275 153.182ZM481.715 146.418L478.647 143.126L481.715 146.418ZM488.825 141.439L486.916 137.364L488.825 141.439ZM510.155 142.919L507.352 146.44L510.155 142.919ZM524.375 142.433L523.078 146.743L524.375 142.433ZM531.485 147.9L534.984 145.07L531.485 147.9ZM552.815 146.295L556.659 148.636L552.815 146.295ZM567.035 140.718L569.472 136.935L567.035 140.718ZM581.255 151.325L579.081 155.265L581.255 151.325ZM588.365 149.794L585.212 146.584L588.365 149.794ZM595.475 144.884L597.143 149.063L595.475 144.884ZM609.695 140.634L611.705 144.66L609.695 140.634ZM620 150.073L624.5 150.073L624.5 150L624.498 149.926L620 150.073ZM619.9 147L619.9 142.5L615.251 142.5L615.402 147.146L619.9 147ZM620 151.5C622.485 151.5 624.5 149.485 624.5 147C624.5 144.515 622.485 142.5 620 142.5L620 147L620 151.5ZM80 147L80 151.5L80.1 151.5L80.1 147L80.1 142.5L80 142.5L80 147ZM80.1 147L79.0508 151.376C83.5412 152.453 86.5179 153.614 88.2846 154.715L90.665 150.897L93.0454 147.078C90.0721 145.224 86.0055 143.788 81.1492 142.624L80.1 147ZM90.665 150.897L88.2846 154.715C90.4086 156.04 92.921 156.559 95.5107 155.783C97.8924 155.07 99.7772 153.427 101.258 151.618L97.775 148.768L94.2923 145.918C93.4028 147.005 92.9176 147.165 92.9293 147.162C92.9679 147.15 93.0623 147.136 93.162 147.152C93.2472 147.166 93.2129 147.182 93.0454 147.078L90.665 150.897ZM97.775 148.768L101.258 151.618C101.655 151.131 101.94 150.895 102.086 150.795C102.22 150.704 102.17 150.772 101.956 150.802C101.853 150.816 101.744 150.817 101.639 150.804C101.536 150.79 101.466 150.767 101.435 150.754C101.383 150.733 101.511 150.773 101.801 151.046L104.885 147.769L107.969 144.492C106.171 142.799 103.685 141.471 100.704 141.889C97.912 142.282 95.8058 144.068 94.2923 145.918L97.775 148.768ZM104.885 147.769L101.801 151.046C103.443 152.591 105.499 153.843 107.961 154.106C110.496 154.377 112.771 153.529 114.642 152.169L111.995 148.529L109.348 144.89C109.084 145.082 108.93 145.139 108.885 145.153C108.853 145.163 108.877 145.153 108.919 145.157C109.011 145.167 108.697 145.177 107.969 144.492L104.885 147.769ZM111.995 148.529L114.642 152.169C114.884 151.992 115.004 151.96 114.999 151.961C114.978 151.967 114.909 151.977 114.837 151.965C114.712 151.945 115.06 151.949 115.849 152.777L119.105 149.67L122.361 146.564C120.78 144.907 118.758 143.479 116.263 143.079C113.644 142.659 111.274 143.49 109.348 144.89L111.995 148.529ZM119.105 149.67L115.849 152.777C117.527 154.535 119.91 156.096 122.917 155.924C125.838 155.757 128.062 154.018 129.626 152.199L126.215 149.264L122.804 146.329C122.428 146.765 122.184 146.943 122.095 146.997C122.056 147.02 122.067 147.009 122.125 146.989C122.186 146.969 122.282 146.946 122.403 146.939C122.525 146.932 122.639 146.943 122.735 146.964C122.827 146.984 122.877 147.008 122.88 147.01C122.882 147.011 122.835 146.988 122.743 146.917C122.651 146.845 122.522 146.733 122.361 146.564L119.105 149.67ZM126.215 149.264L129.626 152.199C131.755 149.724 133.711 148.121 135.458 147.181L133.325 143.218L131.192 139.255C128.199 140.866 125.415 143.293 122.804 146.329L126.215 149.264ZM133.325 143.218L135.458 147.181C135.461 147.179 135.414 147.205 135.318 147.229C135.219 147.254 135.096 147.27 134.959 147.266C134.663 147.256 134.514 147.16 134.558 147.187C134.627 147.228 134.861 147.393 135.234 147.829C135.601 148.26 136.039 148.88 136.532 149.739L140.435 147.5L144.338 145.26C143.012 142.949 141.359 140.776 139.202 139.477C136.702 137.971 133.824 137.839 131.192 139.255L133.325 143.218ZM140.435 147.5L136.532 149.739C137.856 152.046 139.556 154.276 141.844 155.517C143.07 156.182 144.488 156.574 146.026 156.485C147.549 156.398 148.893 155.856 150.017 155.117L147.545 151.357L145.073 147.597C145.012 147.637 145.171 147.52 145.509 147.5C145.862 147.48 146.095 147.584 146.136 147.606C146.14 147.609 145.95 147.502 145.599 147.1C145.253 146.705 144.827 146.112 144.338 145.26L140.435 147.5ZM147.545 151.357L150.017 155.117C151.355 154.237 152.231 154.247 153.079 154.564L154.655 150.349L156.231 146.134C152.339 144.678 148.475 145.36 145.073 147.597L147.545 151.357ZM154.655 150.349L153.079 154.564C155.317 155.4 157.654 155.369 159.867 154.493C161.959 153.665 163.711 152.177 165.181 150.463L161.765 147.533L158.349 144.603C157.449 145.653 156.831 146.016 156.553 146.125C156.434 146.173 156.384 146.171 156.383 146.171C156.382 146.171 156.339 146.174 156.231 146.134L154.655 150.349ZM161.765 147.533L165.181 150.463C165.349 150.267 165.481 150.14 165.572 150.062C165.662 149.985 165.698 149.97 165.674 149.982C165.647 149.997 165.559 150.04 165.414 150.072C165.265 150.105 165.093 150.119 164.916 150.103C164.74 150.087 164.606 150.047 164.522 150.013C164.443 149.981 164.427 149.962 164.472 149.995C164.519 150.028 164.614 150.104 164.754 150.249C164.894 150.393 165.064 150.591 165.263 150.858L168.875 148.175L172.487 145.491C171.031 143.53 168.826 141.419 165.724 141.14C162.444 140.844 159.961 142.725 158.349 144.603L161.765 147.533ZM168.875 148.175L165.263 150.858C166.676 152.761 168.371 154.46 170.435 155.48C172.652 156.576 175.102 156.784 177.499 155.928L175.985 151.69L174.471 147.453C174.427 147.468 174.453 147.453 174.515 147.457C174.572 147.461 174.55 147.474 174.425 147.413C174.119 147.261 173.444 146.778 172.487 145.491L168.875 148.175ZM175.985 151.69L177.499 155.928C178.275 155.651 179.134 155.629 180.515 156.595L183.095 152.908L185.675 149.221C182.316 146.87 178.435 146.036 174.471 147.453L175.985 151.69ZM183.095 152.908L180.515 156.595C182.474 157.966 184.861 158.73 187.463 158.251C189.929 157.798 191.924 156.348 193.489 154.678L190.205 151.602L186.921 148.525C186.116 149.384 185.741 149.417 185.837 149.4C185.898 149.388 185.966 149.394 185.997 149.402C186.011 149.406 185.905 149.382 185.675 149.221L183.095 152.908ZM190.205 151.602L193.489 154.678C195.383 152.656 196.564 152.447 197.099 152.472L197.315 147.977L197.531 143.483C193.326 143.281 189.767 145.487 186.921 148.525L190.205 151.602ZM197.315 147.977L197.099 152.472C200.086 152.615 203.038 152.154 205.925 151.134L204.425 146.891L202.925 142.648C201.072 143.304 199.284 143.567 197.531 143.483L197.315 147.977ZM204.425 146.891L205.925 151.134C206.567 150.907 207.364 150.839 208.79 151.937L211.535 148.371L214.28 144.804C210.966 142.255 207.023 141.2 202.925 142.648L204.425 146.891ZM211.535 148.371L208.79 151.937C211.839 154.283 215.346 155.606 219.153 155.174L218.645 150.703L218.137 146.232C217.204 146.338 215.971 146.106 214.28 144.804L211.535 148.371ZM218.645 150.703L219.153 155.174C221.515 154.906 223.877 154.644 226.238 154.389L225.755 149.915L225.271 145.441C222.893 145.698 220.515 145.962 218.137 146.232L218.645 150.703ZM225.755 149.915L226.238 154.389C228.513 154.143 230.786 153.971 233.059 153.873L232.865 149.378L232.671 144.882C230.204 144.988 227.737 145.175 225.271 145.441L225.755 149.915ZM232.865 149.378L233.059 153.873C235.828 153.754 238.576 153.27 241.295 152.436L239.975 148.134L238.655 143.832C236.634 144.452 234.642 144.797 232.671 144.882L232.865 149.378ZM239.975 148.134L241.295 152.436C242.399 152.097 243.521 152.163 244.933 152.931L247.085 148.98L249.237 145.028C245.909 143.215 242.291 142.716 238.655 143.832L239.975 148.134ZM247.085 148.98L244.933 152.931C247.358 154.253 250.077 154.361 252.607 153.131C254.843 152.045 256.575 150.09 257.952 148.001L254.195 145.524L250.438 143.047C249.968 143.76 249.562 144.254 249.233 144.582C248.903 144.913 248.71 145.018 248.673 145.037C248.66 145.043 248.783 144.986 248.994 144.992C249.201 144.998 249.295 145.059 249.237 145.028L247.085 148.98ZM254.195 145.524L257.952 148.001C258.149 147.702 258.31 147.5 258.426 147.37C258.544 147.24 258.592 147.212 258.558 147.236C258.521 147.261 258.379 147.354 258.133 147.426C257.875 147.502 257.568 147.537 257.247 147.5C256.596 147.427 256.334 147.128 256.468 147.253C256.528 147.308 256.647 147.431 256.815 147.656C256.982 147.879 257.18 148.177 257.402 148.565L261.305 146.325L265.208 144.084C263.957 141.906 261.788 138.955 258.253 138.557C254.347 138.117 251.788 141 250.438 143.047L254.195 145.524ZM261.305 146.325L257.402 148.565C258.702 150.828 260.599 153.338 263.441 154.282C266.955 155.449 269.883 153.72 271.713 151.748L268.415 148.687L265.117 145.625C264.832 145.933 264.801 145.858 265.066 145.759C265.212 145.704 265.416 145.656 265.658 145.651C265.901 145.646 266.115 145.686 266.279 145.741C266.583 145.842 266.585 145.944 266.322 145.671C266.064 145.404 265.682 144.911 265.208 144.084L261.305 146.325ZM268.415 148.687L271.713 151.748C273.757 149.546 275.503 148.447 276.904 147.996L275.525 143.713L274.146 139.429C270.807 140.504 267.813 142.721 265.117 145.625L268.415 148.687ZM275.525 143.713L276.904 147.996C276.954 147.98 276.946 147.99 276.915 147.987C276.889 147.985 276.939 147.982 277.085 148.053C277.423 148.221 278.107 148.714 279.057 149.959L282.635 147.23L286.213 144.501C283.453 140.882 279.295 137.772 274.146 139.429L275.525 143.713ZM282.635 147.23L279.057 149.959C280.536 151.898 282.774 153.962 285.891 154.17C289.138 154.386 291.581 152.495 293.176 150.617L289.745 147.704L286.314 144.792C286.143 144.994 286.006 145.128 285.909 145.213C285.812 145.297 285.768 145.319 285.782 145.311C285.798 145.302 285.876 145.262 286.01 145.229C286.149 145.195 286.314 145.178 286.489 145.19C286.663 145.201 286.801 145.238 286.892 145.273C286.978 145.305 287.002 145.328 286.966 145.302C286.928 145.276 286.84 145.209 286.706 145.076C286.573 144.942 286.407 144.756 286.213 144.501L282.635 147.23ZM289.745 147.704L293.176 150.617C293.56 150.164 293.823 149.961 293.941 149.886C294.042 149.822 293.963 149.896 293.732 149.918C293.623 149.929 293.514 149.924 293.417 149.907C293.323 149.891 293.265 149.867 293.25 149.861C293.231 149.852 293.386 149.918 293.697 150.225L296.855 147.019L300.013 143.813C298.273 142.099 295.846 140.673 292.868 140.96C290.024 141.234 287.86 142.971 286.314 144.792L289.745 147.704ZM296.855 147.019L293.697 150.225C296.68 153.163 300.454 155.087 304.773 154.299L303.965 149.872L303.158 145.446C302.736 145.522 301.77 145.544 300.013 143.813L296.855 147.019ZM303.965 149.872L304.773 154.299C305.588 154.151 306.692 154.276 308.318 155.536L311.075 151.98L313.832 148.423C310.718 146.009 307.082 144.73 303.158 145.446L303.965 149.872ZM311.075 151.98L308.318 155.536C309.459 156.421 310.938 157.136 312.699 157.196C314.478 157.257 316.017 156.631 317.228 155.775C319.434 154.216 321.025 151.565 322.278 148.823L318.185 146.953L314.092 145.083C313.572 146.221 313.104 147.05 312.705 147.628C312.508 147.913 312.345 148.113 312.22 148.247C312.095 148.382 312.03 148.428 312.032 148.426C312.058 148.408 312.412 148.181 313.006 148.202C313.582 148.221 313.876 148.457 313.832 148.423L311.075 151.98ZM318.185 146.953L322.278 148.823C322.786 147.711 323.2 147.053 323.477 146.707C323.785 146.322 323.685 146.616 323.078 146.805C322.737 146.911 322.336 146.95 321.926 146.885C321.531 146.822 321.259 146.685 321.125 146.601C321.001 146.523 320.992 146.49 321.08 146.587C321.167 146.682 321.311 146.862 321.502 147.161L325.295 144.74L329.088 142.318C328.321 141.117 327.298 139.849 325.91 138.978C324.363 138.007 322.418 137.584 320.402 138.212C318.61 138.77 317.325 139.989 316.448 141.085C315.54 142.22 314.769 143.6 314.092 145.083L318.185 146.953ZM325.295 144.74L321.502 147.161C323.996 151.068 327.848 155.045 333.163 154.137L332.405 149.701L331.647 145.266C331.857 145.23 331.85 145.37 331.425 145.074C330.912 144.716 330.105 143.911 329.088 142.318L325.295 144.74ZM332.405 149.701L333.163 154.137C335.874 153.674 338.558 152.895 341.211 151.816L339.515 147.648L337.819 143.479C335.732 144.329 333.676 144.919 331.647 145.266L332.405 149.701ZM339.515 147.648L341.211 151.816C343.994 150.684 346.7 149.1 349.333 147.117L346.625 143.523L343.917 139.929C341.81 141.517 339.776 142.683 337.819 143.479L339.515 147.648ZM346.625 143.523L349.333 147.117C349.619 146.901 349.802 146.821 349.882 146.794C349.949 146.77 349.952 146.78 349.922 146.778C349.834 146.773 350.109 146.742 350.784 147.329L353.735 143.931L356.686 140.534C354.991 139.062 352.896 137.934 350.438 137.793C347.944 137.649 345.734 138.56 343.917 139.929L346.625 143.523ZM353.735 143.931L350.784 147.329C352.617 148.921 355.038 150.074 357.865 149.709C360.551 149.363 362.649 147.76 364.21 146.002L360.845 143.015L357.48 140.027C357.097 140.458 356.822 140.67 356.675 140.762C356.541 140.847 356.56 140.803 356.715 140.783C356.885 140.761 357.024 140.793 357.073 140.811C357.097 140.82 356.964 140.776 356.686 140.534L353.735 143.931ZM360.845 143.015L364.21 146.002C364.372 145.82 364.495 145.707 364.576 145.641C364.656 145.576 364.68 145.569 364.644 145.587C364.605 145.607 364.507 145.649 364.356 145.678C364.201 145.708 364.031 145.715 363.861 145.695C363.511 145.652 363.38 145.523 363.491 145.606C363.548 145.648 363.652 145.735 363.799 145.89C363.945 146.044 364.121 146.253 364.322 146.528L367.955 143.872L371.588 141.216C370.144 139.242 367.984 137.127 364.939 136.759C361.662 136.364 359.134 138.164 357.48 140.027L360.845 143.015ZM367.955 143.872L364.322 146.528C366.835 149.965 369.418 152.891 372.086 155.247L375.065 151.874L378.044 148.502C375.972 146.671 373.815 144.262 371.588 141.216L367.955 143.872ZM375.065 151.874L372.086 155.247C373.847 156.802 376.127 157.981 378.824 157.859C381.478 157.738 383.651 156.395 385.315 154.775L382.175 151.552L379.035 148.328C378.329 149.016 378.132 148.881 378.416 148.868C378.543 148.862 378.612 148.894 378.581 148.881C378.533 148.861 378.35 148.772 378.044 148.502L375.065 151.874ZM382.175 151.552L385.315 154.775C387.576 152.572 389.82 150.611 392.044 148.885L389.285 145.33L386.526 141.775C384.01 143.727 381.514 145.914 379.035 148.328L382.175 151.552ZM389.285 145.33L392.044 148.885C394.201 147.211 396.309 145.888 398.364 144.888L396.395 140.842L394.426 136.795C391.741 138.102 389.109 139.771 386.526 141.775L389.285 145.33ZM396.395 140.842L398.364 144.888C399.081 144.539 399.708 144.455 400.904 145.302L403.505 141.63L406.106 137.957C402.562 135.448 398.449 134.838 394.426 136.795L396.395 140.842ZM403.505 141.63L400.904 145.302C403.743 147.313 406.789 148.651 410.022 149.081L410.615 144.62L411.208 140.16C409.701 139.959 408.007 139.304 406.106 137.957L403.505 141.63ZM410.615 144.62L410.022 149.081C413.281 149.515 416.483 148.991 419.545 147.637L417.725 143.521L415.905 139.406C414.227 140.148 412.689 140.357 411.208 140.16L410.615 144.62ZM417.725 143.521L419.545 147.637C420.178 147.357 420.831 147.246 422.127 148.222L424.835 144.629L427.543 141.035C424.099 138.439 420.012 137.59 415.905 139.406L417.725 143.521ZM424.835 144.629L422.127 148.222C425.05 150.426 428.294 151.807 431.803 151.918L431.945 147.42L432.087 142.922C430.856 142.883 429.36 142.404 427.543 141.035L424.835 144.629ZM431.945 147.42L431.803 151.918C435.268 152.027 438.536 150.922 441.525 148.958L439.055 145.197L436.585 141.436C434.834 142.586 433.362 142.962 432.087 142.922L431.945 147.42ZM439.055 145.197L441.525 148.958C441.663 148.868 441.632 148.922 441.453 148.946C441.255 148.974 441.088 148.937 441.018 148.911C440.978 148.896 441.104 148.935 441.385 149.186C441.666 149.438 442.041 149.848 442.492 150.485L446.165 147.886L449.838 145.287C448.428 143.293 446.599 141.399 444.202 140.493C441.494 139.469 438.808 139.975 436.585 141.436L439.055 145.197ZM446.165 147.886L442.492 150.485C445.097 154.167 448.514 157.331 452.932 157.668L453.275 153.182L453.618 148.695C453.296 148.67 451.973 148.304 449.838 145.287L446.165 147.886ZM453.275 153.182L452.932 157.668C457.48 158.016 461.138 155.286 463.88 151.904L460.385 149.069L456.89 146.235C454.892 148.698 453.81 148.709 453.618 148.695L453.275 153.182ZM460.385 149.069L463.88 151.904C464.068 151.671 464.229 151.502 464.357 151.381C464.486 151.26 464.571 151.199 464.61 151.174C464.647 151.149 464.63 151.166 464.558 151.192C464.483 151.218 464.368 151.248 464.222 151.257C464.075 151.266 463.937 151.252 463.821 151.225C463.708 151.2 463.645 151.168 463.634 151.163C463.626 151.158 463.67 151.18 463.764 151.257C463.857 151.333 463.989 151.454 464.155 151.638L467.495 148.622L470.835 145.607C469.193 143.789 466.778 142.078 463.658 142.274C460.645 142.464 458.414 144.356 456.89 146.235L460.385 149.069ZM467.495 148.622L464.155 151.638C465.649 153.292 467.428 154.712 469.545 155.463C471.775 156.254 474.085 156.195 476.268 155.327L474.605 151.145L472.942 146.964C472.81 147.016 472.747 147.019 472.731 147.019C472.716 147.019 472.665 147.02 472.555 146.981C472.302 146.891 471.711 146.577 470.835 145.607L467.495 148.622ZM474.605 151.145L476.268 155.327C479.277 154.13 482.11 152.201 484.783 149.71L481.715 146.418L478.647 143.126C476.58 145.052 474.673 146.275 472.942 146.964L474.605 151.145ZM481.715 146.418L484.783 149.71C486.888 147.748 488.876 146.384 490.734 145.514L488.825 141.439L486.916 137.364C484.034 138.714 481.282 140.67 478.647 143.126L481.715 146.418ZM488.825 141.439L490.734 145.514C491.738 145.044 492.583 145.039 493.744 145.686L495.935 141.756L498.126 137.825C494.547 135.83 490.652 135.614 486.916 137.364L488.825 141.439ZM495.935 141.756L493.744 145.686C497.398 147.724 501.361 147.835 505.1 145.917L503.045 141.913L500.99 137.91C499.989 138.424 499.212 138.43 498.126 137.825L495.935 141.756ZM503.045 141.913L505.1 145.917C505.555 145.683 505.808 145.685 505.97 145.708C506.175 145.737 506.63 145.865 507.352 146.44L510.155 142.919L512.958 139.399C511.31 138.086 509.395 137.103 507.23 136.797C505.022 136.485 502.905 136.927 500.99 137.91L503.045 141.913ZM510.155 142.919L507.352 146.44C509.039 147.783 511.035 148.772 513.308 148.976C515.619 149.183 517.762 148.538 519.628 147.387L517.265 143.557L514.902 139.727C514.398 140.038 514.171 140.017 514.112 140.012C514.015 140.003 513.641 139.943 512.958 139.399L510.155 142.919ZM517.265 143.557L519.628 147.387C521.055 146.506 522.102 146.449 523.078 146.743L524.375 142.433L525.672 138.124C521.908 136.992 518.215 137.683 514.902 139.727L517.265 143.557ZM524.375 142.433L523.078 146.743C524.238 147.092 525.906 148.158 527.986 150.729L531.485 147.9L534.984 145.07C532.324 141.78 529.252 139.202 525.672 138.124L524.375 142.433ZM531.485 147.9L527.986 150.729C529.492 152.592 531.602 154.409 534.413 154.804C537.42 155.227 539.914 153.863 541.703 152.154L538.595 148.9L535.487 145.646C535.193 145.927 535.065 145.966 535.12 145.944C535.153 145.93 535.226 145.905 535.334 145.891C535.444 145.876 535.559 145.877 535.667 145.892C535.892 145.924 535.948 145.996 535.815 145.905C535.669 145.804 535.384 145.565 534.984 145.07L531.485 147.9ZM538.595 148.9L541.703 152.154C542.036 151.836 542.25 151.712 542.331 151.673C542.395 151.642 542.34 151.68 542.201 151.682C542.062 151.683 541.997 151.646 542.045 151.668C542.112 151.699 542.313 151.809 542.636 152.11L545.705 148.819L548.774 145.528C547.059 143.928 544.81 142.651 542.099 142.682C539.399 142.713 537.177 144.031 535.487 145.646L538.595 148.9ZM545.705 148.819L542.636 152.11C544.633 153.972 547.525 155.236 550.765 154.086C553.449 153.134 555.322 150.83 556.659 148.636L552.815 146.295L548.971 143.955C548.504 144.723 548.124 145.193 547.858 145.458C547.589 145.727 547.545 145.679 547.755 145.605C547.868 145.564 548.029 145.527 548.222 145.52C548.417 145.514 548.592 145.541 548.731 145.581C548.997 145.658 549.005 145.743 548.774 145.528L545.705 148.819ZM552.815 146.295L556.659 148.636C558.885 144.978 560.489 143.961 561.16 143.77L559.925 139.443L558.69 135.115C554.621 136.277 551.485 139.828 548.971 143.955L552.815 146.295ZM559.925 139.443L561.16 143.77C562.099 143.502 563.143 143.564 564.598 144.501L567.035 140.718L569.472 136.935C566.187 134.819 562.491 134.031 558.69 135.115L559.925 139.443ZM567.035 140.718L564.598 144.501C566.747 145.885 568.93 147.56 571.146 149.54L574.145 146.186L577.144 142.831C574.62 140.574 572.063 138.604 569.472 136.935L567.035 140.718ZM574.145 146.186L571.146 149.54C573.726 151.847 576.369 153.769 579.081 155.265L581.255 151.325L583.429 147.385C581.401 146.266 579.304 144.762 577.144 142.831L574.145 146.186ZM581.255 151.325L579.081 155.265C581.098 156.378 583.385 156.833 585.757 156.322C588.03 155.833 589.943 154.552 591.518 153.005L588.365 149.794L585.212 146.584C584.417 147.364 583.96 147.503 583.863 147.524C583.822 147.532 583.805 147.531 583.779 147.527C583.746 147.521 583.632 147.497 583.429 147.385L581.255 151.325ZM588.365 149.794L591.518 153.005C593.585 150.975 595.467 149.732 597.143 149.063L595.475 144.884L593.807 140.705C590.743 141.927 587.885 143.958 585.212 146.584L588.365 149.794ZM595.475 144.884L597.143 149.063C599.21 148.239 601.243 147.686 603.246 147.388L602.585 142.937L601.924 138.486C599.187 138.893 596.48 139.638 593.807 140.705L595.475 144.884ZM602.585 142.937L603.246 147.388C606.132 146.96 608.955 146.033 611.705 144.66L609.695 140.634L607.685 136.608C605.695 137.602 603.778 138.211 601.924 138.486L602.585 142.937ZM609.695 140.634L611.705 144.66C611.599 144.713 611.292 144.819 610.883 144.766C610.506 144.718 610.355 144.573 610.449 144.646C610.561 144.733 610.835 144.987 611.233 145.558C611.623 146.119 612.069 146.893 612.556 147.924L616.625 146.002L620.694 144.08C619.472 141.494 617.962 139.081 615.961 137.531C614.9 136.709 613.586 136.041 612.039 135.841C610.461 135.637 608.976 135.963 607.685 136.608L609.695 140.634ZM616.625 146.002L612.556 147.924C613.64 150.218 614.707 152.276 615.692 153.464C615.943 153.766 616.453 154.346 617.213 154.801C617.974 155.257 620.007 156.119 622.146 154.804C623.823 153.773 624.231 152.122 624.328 151.711C624.477 151.075 624.5 150.479 624.5 150.073L620 150.073L615.5 150.073C615.5 150.179 615.487 149.989 615.567 149.652C615.593 149.54 615.896 148.082 617.432 147.137C619.431 145.908 621.287 146.751 621.838 147.081C622.149 147.267 622.353 147.448 622.446 147.537C622.549 147.634 622.607 147.703 622.62 147.719C622.642 147.745 622.596 147.692 622.477 147.506C622.366 147.331 622.221 147.087 622.042 146.762C621.682 146.109 621.234 145.223 620.694 144.08L616.625 146.002ZM620 150.073L624.498 149.926L624.398 146.854L619.9 147L615.402 147.146L615.502 150.219L620 150.073ZM619.9 147L619.9 151.5L620 151.5L620 147L620 142.5L619.9 142.5L619.9 147Z" fill="#E44F26"/>
</svg>
